<svg id="Layer_1" data-name="Layer 1" xmlns="http://www.w3.org/2000/svg" viewBox="0 0 176.68 274"><defs><style>.cls-1{fill:#4582f5;}.cls-2{fill:#575757;}.cls-3{fill:#585858;}.cls-4{fill:#4783f3;}.cls-5{fill:#5990f2;}.cls-6{fill:#636363;}.cls-7{fill:#646363;}.cls-8{fill:#598bec;}.cls-9{fill:#656262;}.cls-10{fill:#568af2;}.cls-11{fill:#696868;}.cls-12{fill:#fafbfb;}.cls-13{fill:#f8f8f8;}</style></defs><path class="cls-1" d="M264,249v52.28c0,2.35,0,2.37-2.43,2.37H204.71c-6.72,0-13.45.11-20.16,0-10.54-.21-21-1.09-31.27-3.74-14.85-3.84-28.34-10.39-39.69-20.81a78.83,78.83,0,0,1-24.31-43.06,102.8,102.8,0,0,1-1.91-23.54c0-1.82.06-1.86,1.9-1.86q19,0,37.92,0c1.9,0,1.9,0,1.94,2,.06,3.28-.14,6.56.14,9.83,1.84,21.86,15.45,37.85,35,43.94a72.51,72.51,0,0,0,15.48,2.88c5.67.48,11.34.2,17,.26,7.6.09,15.2,0,22.8,0,3.52,0,3.13.36,3.13-3q0-34.53,0-69.06c0-3.57-.42-3.21,3.18-3.21h35l1.92,0c.8,0,1.14.44,1.12,1.21s0,1.28,0,1.92Z" transform="translate(-87.33 -29.73)"/><path class="cls-2" d="M87.52,83.78V32.48c0-2.86-.36-2.71,2.71-2.71,26.07,0,52.15-.1,78.22,0,15.71.08,31,2.77,45.39,9.25,16.59,7.45,29.79,18.73,38.8,34.64a81.51,81.51,0,0,1,9.63,28.6,112.1,112.1,0,0,1,.92,17.65c0,1.7,0,1.74-1.72,1.74q-18.59,0-37.19,0c-1.83,0-1.84,0-1.88-1.85a101.41,101.41,0,0,0-.45-11.94C219.2,88,208.46,74.38,189.88,67a61.59,61.59,0,0,0-22.48-4.08c-12.32-.09-24.63,0-37,0-2.92,0-2.61-.08-2.61,2.57q0,34.88,0,69.76c0,3,.35,2.66-2.68,2.66q-17.5,0-35,0c-.48,0-1,0-1.44,0-.77,0-1.2-.25-1.16-1.1,0-.64,0-1.28,0-1.92Z" transform="translate(-87.33 -29.73)"/><path class="cls-3" d="M169,173.08V180a2.34,2.34,0,0,1-.52,1.78,1.87,1.87,0,0,1-2,.56,1.48,1.48,0,0,1-1.06-1.46c0-1.51-.1-3,0-4.53.22-3.12-.12-6.22,0-9.33a3,3,0,0,0-1-2.35c-1.26-1.22-2.49-2.47-3.71-3.73a4.33,4.33,0,0,0-4.1-1.61c-3.14.46-5.43-1.68-5.72-4.76a5.38,5.38,0,0,1,4.32-5.76,5.26,5.26,0,0,1,6.38,4,10.4,10.4,0,0,1,.24,2.84,3.44,3.44,0,0,0,1.32,2.91c1.48,1.33,2.79,2.84,4.26,4.19a4.8,4.8,0,0,1,1.58,3.83c0,2.16,0,4.31,0,6.47Z" transform="translate(-87.33 -29.73)"/><path class="cls-3" d="M186.83,184.92c0-2.4,0-4.79,0-7.18a3,3,0,0,1,.24-1.39,1.69,1.69,0,0,1,1.89-.72,1.44,1.44,0,0,1,1.2,1.55c0,2.08,0,4.15,0,6.22,0,2.48,0,4.95,0,7.42a3,3,0,0,0,.89,2.36c1.48,1.45,2.93,2.93,4.39,4.4,1,1,2.32,1,3.58,1a5.43,5.43,0,0,1,4.07,1.69,5.27,5.27,0,0,1,.85,6.2,5.34,5.34,0,0,1-5.62,2.77c-2.29-.45-4.3-2.26-4.33-4.5a9.07,9.07,0,0,0-3.49-7.13c-4.1-3.67-4-3.82-3.82-9.33,0-1.12,0-2.24,0-3.35Z" transform="translate(-87.33 -29.73)"/><path class="cls-4" d="M176.19,175.29v-8.61c0-.56,0-1.11.05-1.67.06-1,.38-1.74,1.53-1.75a1.79,1.79,0,0,1,1.78,1.84,23.76,23.76,0,0,1,.07,2.39q0,8.47,0,17a5.88,5.88,0,0,1,0,1.19c-.19.94-.73,1.66-1.75,1.63a1.57,1.57,0,0,1-1.61-1.72c0-1.27,0-2.55,0-3.82Z" transform="translate(-87.33 -29.73)"/><path class="cls-5" d="M178,161.28a1.62,1.62,0,0,1-1.62-1.7c0-1,.78-1.34,1.63-1.4a1.51,1.51,0,0,1,1.55,1.71C179.51,160.89,178.93,161.28,178,161.28Z" transform="translate(-87.33 -29.73)"/><path class="cls-6" d="M190.25,171.58a1.59,1.59,0,0,1-3.17.07,1.6,1.6,0,0,1,1.56-1.72A1.54,1.54,0,0,1,190.25,171.58Z" transform="translate(-87.33 -29.73)"/><path class="cls-7" d="M168.65,186.55a1.65,1.65,0,0,1-1.71,1.55,1.56,1.56,0,0,1-1.35-1.86,1.39,1.39,0,0,1,1.56-1.39A1.48,1.48,0,0,1,168.65,186.55Z" transform="translate(-87.33 -29.73)"/><path class="cls-8" d="M179.27,154.42c-.1.84-.46,1.5-1.41,1.57a1.63,1.63,0,0,1-1.55-1.73,1.47,1.47,0,0,1,1.57-1.44C178.8,152.85,179.24,153.48,179.27,154.42Z" transform="translate(-87.33 -29.73)"/><path class="cls-9" d="M187.08,166.25c.14-.94.58-1.55,1.55-1.55a1.38,1.38,0,0,1,1.46,1.53,1.42,1.42,0,0,1-1.77,1.43A1.29,1.29,0,0,1,187.08,166.25Z" transform="translate(-87.33 -29.73)"/><path class="cls-10" d="M176.29,191.21c0-1,.48-1.54,1.46-1.57s1.54.44,1.54,1.41-.39,1.53-1.43,1.54A1.4,1.4,0,0,1,176.29,191.21Z" transform="translate(-87.33 -29.73)"/><path class="cls-11" d="M167.08,190.28a1.47,1.47,0,0,1,1.45,1.62,1.52,1.52,0,0,1-1.63,1.42c-1,0-1.36-.69-1.33-1.63S166.26,190.35,167.08,190.28Z" transform="translate(-87.33 -29.73)"/><path class="cls-12" d="M154.08,154.18a2.25,2.25,0,0,1,2.35-2.41,2.46,2.46,0,0,1,2.45,2.4,2.4,2.4,0,0,1-2.43,2.39A2.24,2.24,0,0,1,154.08,154.18Z" transform="translate(-87.33 -29.73)"/><path class="cls-13" d="M201.6,204a2.33,2.33,0,0,1-2.27,2.31A2.38,2.38,0,0,1,197,204a2.33,2.33,0,1,1,4.65-.09Z" transform="translate(-87.33 -29.73)"/></svg>
